<svg width="520" height="520" viewBox="0 0 520 520" fill="none" xmlns="http://www.w3.org/2000/svg">
  <rect width="520" height="520" rx="72" fill="#FFF8F4"/>
  <ellipse cx="260" cy="418" rx="144" ry="28" fill="#E3B7A8" fill-opacity="0.45"/>
  <circle cx="257" cy="237" r="132" fill="url(#paint0_linear_22_10)"/>
  <circle cx="257" cy="237" r="52" fill="#FFF8F4"/>
  <circle cx="257" cy="237" r="18" fill="#E7A895"/>
  <path d="M167 139C220.2 111.4 281.833 111.833 306 116.5C347 124.5 377 154.5 386 189.5C397.2 232.7 393.333 287.167 388.5 309C364.5 287.5 309.7 257.5 270.5 250.5C219.5 241.5 182 257.5 149.5 275.5C133.9 230.3 135.667 170.333 167 139Z" fill="#FFF8F4"/>
  <path d="M147 267C193.5 241 248.5 235 273.5 238.5C336.7 248.1 381.167 286.5 395 304.5C377.5 342.5 332.2 380 265 381C213.8 381.8 168 350.167 149.5 334.5C138.3 310.9 140.167 281.667 147 267Z" fill="#F3D6CC"/>
  <text x="260" y="455" text-anchor="middle" fill="#241B1E" font-family="Manrope, Arial, sans-serif" font-size="38" font-weight="700">1 PLY</text>
  <defs>
    <linearGradient id="paint0_linear_22_10" x1="125" y1="107" x2="389" y2="370" gradientUnits="userSpaceOnUse">
      <stop stop-color="#FBE9E2"/>
      <stop offset="1" stop-color="#E59686"/>
    </linearGradient>
  </defs>
</svg>
